<?xml version="1.0" encoding="utf-8"?>
<!-- Generator: Adobe Illustrator 19.2.1, SVG Export Plug-In . SVG Version: 6.00 Build 0)  -->
<svg version="1.1" id="layer" xmlns="http://www.w3.org/2000/svg" xmlns:xlink="http://www.w3.org/1999/xlink" x="0px" y="0px"
	 viewBox="0 0 652 652" style="enable-background:new 0 0 652 652;" xml:space="preserve">
<style type="text/css">
	.st0{fill:#0DB14B;}
	.st1{fill:none;stroke:#000000;stroke-width:1.7668;}
	.st2{fill:#FFFFFF;}
	.st3{fill:none;stroke:#FFFFFF;stroke-width:9.1894;}
	.st4{fill:none;stroke:#FFFFFF;stroke-width:1.6958;}
</style>
<g>
	<path class="st0" d="M636.9,528c0,26.7-19.1,48.4-42.5,48.4H56.9c-23.5,0-42.5-21.6-42.5-48.4V124.7c0-26.7,19-48.3,42.5-48.3
		h537.5c23.5,0,42.5,21.7,42.5,48.3V528z"/>
	<path class="st1" d="M636.9,528c0,26.7-19.1,48.4-42.5,48.4H56.9c-23.5,0-42.5-21.6-42.5-48.4V124.7c0-26.7,19-48.3,42.5-48.3
		h537.5c23.5,0,42.5,21.7,42.5,48.3V528z"/>
	<path class="st2" d="M91.4,482.5c-3.9-3.5-8.9-5.7-14.2-5.7c-11.5,0-21.8,9.2-21.8,21.9c0,12.8,10.6,21.9,21.8,21.9
		c6.1,0,10.9-2.2,14.7-5.9l4.4,5c-4.9,4.5-12.2,7.4-19.1,7.4c-18.7,0-29.2-14.8-29.2-28.4c0-13.6,10.5-28.4,29.2-28.4
		c7.3,0,14.5,3,18.9,7L91.4,482.5z"/>
	<polygon class="st2" points="107.2,471.2 135.7,471.2 135.7,477.7 114.2,477.7 114.2,495.2 135.7,495.2 135.7,501.7 114.2,501.7 
		114.2,519.7 135.7,519.7 135.7,526.3 107.2,526.3 	"/>
	<path class="st2" d="M155,502.8v23.5h-7v-55.1H164c10.6,0,18.5,6.1,18.5,16.7c0,9.9-7.8,15.9-16.7,16.5l21.5,22h-9.8L155,502.8z
		 M155,498.5c0.9,0.1,2,0.1,6.1,0.1c10.7,0,14.3-4.6,14.3-10.7c0-6.4-4.4-10.6-11.7-10.6H155V498.5z"/>
	<polygon class="st2" points="201.7,477.7 187.9,477.7 187.9,471.2 222.4,471.2 222.4,477.7 208.7,477.7 208.7,526.2 201.7,526.2 	
		"/>
	<rect x="232.1" y="471.2" class="st2" width="7" height="55.1"/>
	<polygon class="st2" points="251.9,471.2 280.4,471.2 280.4,477.7 258.9,477.7 258.9,495.2 280.4,495.2 280.4,501.7 258.9,501.7 
		258.9,526.3 251.9,526.3 	"/>
	<rect x="292.5" y="471.2" class="st2" width="7" height="55.1"/>
	<polygon class="st2" points="312.6,471.2 341.1,471.2 341.1,477.7 319.5,477.7 319.5,495.2 341.1,495.2 341.1,501.7 319.5,501.7 
		319.5,519.7 341.1,519.7 341.1,526.3 312.6,526.3 	"/>
	<path class="st2" d="M353.5,471.2h18.1c13.5,0,26.4,11.5,26.4,27.3c0,15.7-12.5,27.8-28.2,27.8h-16.4V471.2z M369.8,519.7
		c12.3,0,20.9-9.4,20.9-21.6c0-11.7-9.4-20.4-21.4-20.4h-8.8v42H369.8z"/>
	<path class="st2" d="M163.7,139.7l-8.5,8c-6.1-6-12.7-10.5-20-13.6c-7.2-3.1-14.3-4.6-21.2-4.6c-8.6,0-16.7,2.1-24.4,6.3
		c-7.7,4.2-13.7,9.9-18,17.1c-4.3,7.2-6.4,14.8-6.4,22.8c0,8.2,2.2,16,6.6,23.4c4.4,7.4,10.5,13.2,18.2,17.4
		c7.8,4.2,16.3,6.3,25.5,6.3c11.2,0,20.7-3.2,28.5-9.5c7.8-6.3,12.4-14.5,13.8-24.6H123v-10.5h47c-0.1,16.8-5.1,30.2-15,40.1
		c-9.9,9.9-23.2,14.9-39.8,14.9c-20.2,0-36.1-6.9-47.9-20.6c-9-10.6-13.6-22.8-13.6-36.7c0-10.3,2.6-19.9,7.8-28.8
		c5.2-8.9,12.3-15.8,21.4-20.8c9-5,19.3-7.5,30.7-7.5c9.3,0,18,1.7,26.1,5C147.9,127,155.9,132.3,163.7,139.7"/>
	<path class="st3" d="M163.7,139.7l-8.5,8c-6.1-6-12.7-10.5-20-13.6c-7.2-3.1-14.3-4.6-21.2-4.6c-8.6,0-16.7,2.1-24.4,6.3
		c-7.7,4.2-13.7,9.9-18,17.1c-4.3,7.2-6.4,14.8-6.4,22.8c0,8.2,2.2,16,6.6,23.4c4.4,7.4,10.5,13.2,18.2,17.4
		c7.8,4.2,16.3,6.3,25.5,6.3c11.2,0,20.7-3.2,28.5-9.5c7.8-6.3,12.4-14.5,13.8-24.6H123v-10.5h47c-0.1,16.8-5.1,30.2-15,40.1
		c-9.9,9.9-23.2,14.9-39.8,14.9c-20.2,0-36.1-6.9-47.9-20.6c-9-10.6-13.6-22.8-13.6-36.7c0-10.3,2.6-19.9,7.8-28.8
		c5.2-8.9,12.3-15.8,21.4-20.8c9-5,19.3-7.5,30.7-7.5c9.3,0,18,1.7,26.1,5C147.9,127,155.9,132.3,163.7,139.7z"/>
	<path class="st2" d="M203.5,121.4h21.7c12.1,0,20.3,0.5,24.6,1.5c6.5,1.5,11.7,4.7,15.8,9.5c4,4.9,6.1,10.9,6.1,18
		c0,5.9-1.4,11.1-4.2,15.6c-2.8,4.5-6.8,7.9-12,10.2c-5.2,2.3-12.3,3.5-21.5,3.5l39.2,50.7h-13.4l-39.2-50.7h-6.2v50.7h-10.9V121.4z
		 M214.4,132v37.1l18.8,0.2c7.3,0,12.7-0.7,16.2-2.1c3.5-1.4,6.2-3.6,8.2-6.6c2-3,2.9-6.4,2.9-10.2c0-3.7-1-7-3-10
		c-2-3-4.6-5.1-7.8-6.4c-3.2-1.3-8.6-1.9-16-1.9H214.4z"/>
	<path class="st3" d="M203.5,121.4h21.7c12.1,0,20.3,0.5,24.6,1.5c6.5,1.5,11.7,4.7,15.8,9.5c4,4.9,6.1,10.9,6.1,18
		c0,5.9-1.4,11.1-4.2,15.6c-2.8,4.5-6.8,7.9-12,10.2c-5.2,2.3-12.3,3.5-21.5,3.5l39.2,50.7h-13.4l-39.2-50.7h-6.2v50.7h-10.9V121.4z
		 M214.4,132v37.1l18.8,0.2c7.3,0,12.7-0.7,16.2-2.1c3.5-1.4,6.2-3.6,8.2-6.6c2-3,2.9-6.4,2.9-10.2c0-3.7-1-7-3-10
		c-2-3-4.6-5.1-7.8-6.4c-3.2-1.3-8.6-1.9-16-1.9H214.4z"/>
	<polygon class="st2" points="310.3,121.4 372.7,121.4 372.7,132 321.2,132 321.2,166.2 372.3,166.2 372.3,176.8 321.2,176.8 
		321.2,219.7 372.3,219.7 372.3,230.4 310.3,230.4 	"/>
	<polygon class="st3" points="310.3,121.4 372.7,121.4 372.7,132 321.2,132 321.2,166.2 372.3,166.2 372.3,176.8 321.2,176.8 
		321.2,219.7 372.3,219.7 372.3,230.4 310.3,230.4 	"/>
	<polygon class="st2" points="406.9,121.4 469.3,121.4 469.3,132 417.7,132 417.7,166.2 468.8,166.2 468.8,176.8 417.7,176.8 
		417.7,219.7 468.8,219.7 468.8,230.4 406.9,230.4 	"/>
	<polygon class="st3" points="406.9,121.4 469.3,121.4 469.3,132 417.7,132 417.7,166.2 468.8,166.2 468.8,176.8 417.7,176.8 
		417.7,219.7 468.8,219.7 468.8,230.4 406.9,230.4 	"/>
	<polygon class="st2" points="503.4,230.4 503.4,121.4 505.8,121.4 578.3,204.7 578.3,121.4 589,121.4 589,230.4 586.6,230.4 
		514.7,147.9 514.7,230.4 	"/>
	<polygon class="st3" points="503.4,230.4 503.4,121.4 505.8,121.4 578.3,204.7 578.3,121.4 589,121.4 589,230.4 586.6,230.4 
		514.7,147.9 514.7,230.4 	"/>
	<path class="st2" d="M58.7,260.5h33.6c19.3,0,32.3,0.8,39,2.5c9.6,2.4,17.5,7.3,23.7,14.7c6.1,7.4,9.2,16.7,9.2,27.9
		c0,11.3-3,20.6-9,27.9c-6,7.3-14.2,12.3-24.7,14.8c-7.7,1.8-22,2.8-42.9,2.8H75.6v78.5H58.7V260.5z M75.6,277.2v57.4l28.6,0.4
		c11.5,0,20-1.1,25.3-3.2c5.3-2.1,9.6-5.5,12.6-10.2c3.1-4.7,4.6-10,4.6-15.8c0-5.7-1.5-10.8-4.6-15.5c-3.1-4.7-7.1-8.1-12.1-10
		c-5-2-13.2-3-24.6-3H75.6z"/>
	<path class="st2" d="M190.3,260.5H224c18.8,0,31.5,0.8,38.2,2.3c10.1,2.3,18.2,7.2,24.5,14.8c6.3,7.6,9.4,16.9,9.4,27.9
		c0,9.2-2.2,17.3-6.5,24.3c-4.3,7-10.5,12.3-18.6,15.8c-8.1,3.6-19.2,5.4-33.4,5.5l60.9,78.5h-21l-60.9-78.5h-9.5v78.5h-16.9V260.5z
		 M207.2,277.2v57.4l29.1,0.2c11.3,0,19.6-1.1,25-3.2c5.4-2.1,9.6-5.6,12.7-10.3c3-4.7,4.6-10,4.6-15.8c0-5.7-1.5-10.8-4.6-15.4
		c-3.1-4.6-7.1-7.9-12.1-9.9c-5-2-13.3-3-24.9-3H207.2z"/>
	<path class="st2" d="M401.3,256.3c25.6,0,47,8.5,64.3,25.6c17.3,17.1,25.9,38.1,25.9,63.1c0,24.7-8.6,45.7-25.8,63
		c-17.2,17.2-38.2,25.9-63,25.9c-25.1,0-46.2-8.6-63.5-25.7c-17.3-17.2-25.9-37.9-25.9-62.3c0-16.2,3.9-31.3,11.8-45.2
		c7.9-13.9,18.6-24.7,32.1-32.6C370.8,260.2,385.5,256.3,401.3,256.3 M402,272.8c-12.5,0-24.4,3.3-35.6,9.8
		c-11.2,6.5-19.9,15.3-26.2,26.3c-6.3,11-9.4,23.3-9.4,36.9c0,20.1,7,37,20.9,50.9c13.9,13.8,30.7,20.7,50.3,20.7
		c13.1,0,25.3-3.2,36.4-9.5c11.2-6.4,19.9-15.1,26.1-26.1c6.3-11,9.4-23.3,9.4-36.8c0-13.4-3.1-25.5-9.4-36.4
		c-6.3-10.8-15-19.5-26.4-26C426.8,276,414.8,272.8,402,272.8"/>
	<path class="st4" d="M506.2,359.3c50.1,0,90.7,40.6,90.7,90.7c0,50.1-40.6,90.7-90.7,90.7c-50.1,0-90.8-40.6-90.8-90.7
		C415.4,399.9,456.1,359.3,506.2,359.3"/>
	<path class="st2" d="M525.9,478.9c0,7.4-8.1,32.9-18,32.9c-10,0-18-25.5-18-32.9v-33.5c0-7.4,8.1-13.4,18-13.4c10,0,18,6,18,13.4
		V478.9z"/>
	<path class="st2" d="M524.8,427.1c0,7.8-7.8,14.1-17.4,14.1c-9.6,0-17.4-6.3-17.4-14.1c0-7.8,7.8-14.1,17.4-14.1
		C517,413,524.8,419.3,524.8,427.1"/>
	<path class="st2" d="M518.4,410.4c0,5.1-5.1,9.3-11.4,9.3c-6.3,0-11.4-4.2-11.4-9.3c0-5.1,5.1-9.2,11.4-9.2
		C513.3,401.2,518.4,405.3,518.4,410.4"/>
	<path class="st2" d="M498.3,405.2c0,0-14.4-4.4-15.6-12.7c0,0-4.9,9,12.9,17.9C513.3,419.3,498.3,405.2,498.3,405.2"/>
	<path class="st2" d="M517.3,405.9c0,0,14.4-4.4,15.6-12.7c0,0,4.9,9-12.9,17.9C502.3,420,517.3,405.9,517.3,405.9"/>
	<path class="st2" d="M489.8,425.4c0,0-25.1-4.9-27.1-14.1c0,0-8.5,10,22.3,19.9C515.8,441.1,489.8,425.4,489.8,425.4"/>
	<path class="st2" d="M522.7,426.2c0,0,25-4.9,27.1-14.1c0,0,8.5,10-22.4,19.9C496.7,441.9,522.7,426.2,522.7,426.2"/>
	<path class="st2" d="M490.1,481.4c0,0-25,4.9-27.1,14.1c0,0-8.5-10,22.3-19.9C516.1,465.7,490.1,481.4,490.1,481.4"/>
	<path class="st2" d="M523,480.6c0,0,25,4.9,27.1,14.1c0,0,8.5-10-22.3-19.9C496.9,464.9,523,480.6,523,480.6"/>
	<path class="st2" d="M490.3,452.8c0,0-25,4.9-27.2,14.1c0,0-8.5-10,22.4-19.9C516.4,437.1,490.3,452.8,490.3,452.8"/>
	<path class="st2" d="M523.3,452c0,0,25,4.9,27.1,14.1c0,0,8.5-10-22.3-19.9C497.2,436.3,523.3,452,523.3,452"/>
	<line class="st2" x1="507.6" y1="343.1" x2="507.6" y2="557"/>
	<line class="st4" x1="507.6" y1="343.1" x2="507.6" y2="557"/>
	<line class="st2" x1="38.6" y1="450.5" x2="612.6" y2="450.5"/>
	<line class="st4" x1="38.6" y1="450.5" x2="612.6" y2="450.5"/>
</g>
</svg>
